<?xml version="1.0" encoding="utf-8"?>
<!-- Generator: Adobe Illustrator 24.3.0, SVG Export Plug-In . SVG Version: 6.00 Build 0)  -->
<svg version="1.1" id="Layer_1" xmlns="http://www.w3.org/2000/svg" xmlns:xlink="http://www.w3.org/1999/xlink" x="0px" y="0px"
	 viewBox="0 0 104.5 27" style="enable-background:new 0 0 104.5 27;" xml:space="preserve">
<style type="text/css">
	.st0{fill:url(#SVGID_1_);}
	.st1{fill:url(#SVGID_2_);}
	.st2{fill:url(#SVGID_3_);}
	.st3{fill:url(#SVGID_4_);}
	.st4{fill:url(#SVGID_5_);}
	.st5{fill:url(#SVGID_6_);}
	.st6{fill:url(#SVGID_7_);}
	.st7{fill:url(#SVGID_8_);}
</style>
<linearGradient id="SVGID_1_" gradientUnits="userSpaceOnUse" x1="11.4954" y1="28.6817" x2="16.9124" y2="4.434">
	<stop  offset="0" style="stop-color:#2E3192"/>
	<stop  offset="1" style="stop-color:#00AEEF"/>
</linearGradient>
<path class="st0" d="M15.1,5.9h-4.8l-5.2,17h3.1L9.6,18H16l1.4,4.8h3.2L15.1,5.9z M15.4,13c-1.7,0.2-2,0.4-2.3,2.3
	c0,0.2-0.2,0.3-0.4,0.3c-0.2,0-0.4-0.2-0.4-0.4c-0.2-1.9-0.5-2.2-2.2-2.4c-0.2,0-0.3-0.2-0.3-0.4c0-0.2,0.2-0.4,0.4-0.4
	c1.7-0.2,2-0.4,2.3-2.3c0-0.2,0.2-0.3,0.4-0.3c0.2,0,0.4,0.2,0.4,0.4c0.2,1.9,0.5,2.2,2.2,2.4c0.2,0,0.4,0.2,0.3,0.4
	C15.8,12.8,15.6,13,15.4,13z"/>
<g>
	<linearGradient id="SVGID_2_" gradientUnits="userSpaceOnUse" x1="22.7771" y1="22.84" x2="22.7771" y2="10.715">
		<stop  offset="0" style="stop-color:#2E3192"/>
		<stop  offset="1" style="stop-color:#00AEEF"/>
	</linearGradient>
	<path class="st1" d="M21.8,22.8V10.7h2v12.1H21.8z"/>
	<linearGradient id="SVGID_3_" gradientUnits="userSpaceOnUse" x1="32.8555" y1="22.84" x2="32.8555" y2="10.715">
		<stop  offset="0" style="stop-color:#2E3192"/>
		<stop  offset="1" style="stop-color:#00AEEF"/>
	</linearGradient>
	<path class="st2" d="M25.6,22.8V10.7h2.7l3.5,7l1.1,2.5H33l1.1-2.5l3.5-7h2.7v12.1h-2v-7.4l0.1-1.8h-0.1l-0.7,1.8L34,22.1h-2.4
		l-3.3-6.7l-0.7-1.8h-0.1l0.1,1.8v7.4H25.6z"/>
	<linearGradient id="SVGID_4_" gradientUnits="userSpaceOnUse" x1="47.1921" y1="22.84" x2="47.1921" y2="10.715">
		<stop  offset="0" style="stop-color:#2E3192"/>
		<stop  offset="1" style="stop-color:#00AEEF"/>
	</linearGradient>
	<path class="st3" d="M42,22.8V10.7h5.9c2.7,0,4.5,1.5,4.5,4.2c0,2.7-1.8,4.2-4.5,4.2h-4v3.7H42z M43.9,12.5v5h3.8
		c1.8,0,2.8-0.7,2.8-2.5c0-1.8-0.9-2.5-2.8-2.5H43.9z"/>
	<linearGradient id="SVGID_5_" gradientUnits="userSpaceOnUse" x1="59.0964" y1="22.84" x2="59.0964" y2="10.715">
		<stop  offset="0" style="stop-color:#2E3192"/>
		<stop  offset="1" style="stop-color:#00AEEF"/>
	</linearGradient>
	<path class="st4" d="M53.6,22.8V10.7h6.3c2.8,0,4.5,1.3,4.5,3.6c0,2-1.3,3.2-3.6,3.4v0.1c0.9,0.3,1.4,0.8,1.8,1.6l2,3.5h-2.2
		l-1.9-3.3c-0.5-1-1.1-1.4-2.6-1.4h-2.2v4.7H53.6z M55.6,16.6h4.3c1.6,0,2.4-0.6,2.4-2.1c0-1.5-0.8-2.1-2.4-2.1h-4.3V16.6z"/>
	<linearGradient id="SVGID_6_" gradientUnits="userSpaceOnUse" x1="70.6113" y1="22.84" x2="70.6113" y2="10.715">
		<stop  offset="0" style="stop-color:#2E3192"/>
		<stop  offset="1" style="stop-color:#00AEEF"/>
	</linearGradient>
	<path class="st5" d="M65.8,22.8V10.7h9.7v1.8h-7.7v3.4h7.5v1.7h-7.5v3.5h7.7v1.8H65.8z"/>
	<linearGradient id="SVGID_7_" gradientUnits="userSpaceOnUse" x1="81.8633" y1="23.0217" x2="81.8633" y2="10.5344">
		<stop  offset="0" style="stop-color:#2E3192"/>
		<stop  offset="1" style="stop-color:#00AEEF"/>
	</linearGradient>
	<path class="st6" d="M76.6,18.9v-0.1h2v0.3c0,1.4,0.9,2.2,3.5,2.2c2.3,0,3.1-0.5,3.1-1.6c0-1-0.6-1.4-2.2-1.7l-3-0.5
		c-2-0.4-3.5-1.3-3.5-3.3c0-1.8,1.4-3.5,5.2-3.5c3.5,0,5.2,1.8,5.2,4.1v0.1H85v-0.2c0-1.5-0.9-2.2-3.4-2.2c-2.2,0-3.1,0.5-3.1,1.6
		c0,1,0.6,1.4,2,1.7l3,0.5c2.4,0.4,3.6,1.5,3.6,3.3c0,1.8-1.5,3.5-5.1,3.5C78.4,23,76.6,21.4,76.6,18.9z"/>
	<linearGradient id="SVGID_8_" gradientUnits="userSpaceOnUse" x1="93.4238" y1="23.0217" x2="93.4238" y2="10.5344">
		<stop  offset="0" style="stop-color:#2E3192"/>
		<stop  offset="1" style="stop-color:#00AEEF"/>
	</linearGradient>
	<path class="st7" d="M88.2,18.9v-0.1h2v0.3c0,1.4,0.9,2.2,3.5,2.2c2.3,0,3.1-0.5,3.1-1.6c0-1-0.6-1.4-2.2-1.7l-3-0.5
		c-2-0.4-3.5-1.3-3.5-3.3c0-1.8,1.4-3.5,5.2-3.5c3.5,0,5.2,1.8,5.2,4.1v0.1h-1.9v-0.2c0-1.5-0.9-2.2-3.4-2.2c-2.2,0-3.1,0.5-3.1,1.6
		c0,1,0.6,1.4,2,1.7l3,0.5c2.4,0.4,3.6,1.5,3.6,3.3c0,1.8-1.5,3.5-5.1,3.5C90,23,88.2,21.4,88.2,18.9z"/>
</g>
</svg>
